# xmcd
#
# Track frame offsets: 
#        150
#        25466
#        46532
#        67164
#        90727
#        110046
#        131761
#        156422
#        177206
#
# Disc length: 2565 seconds
#
# Revision: 0
# Processed by: cddbd v1.5.2PL0 Copyright (c) Steve Scherf et al.
# Submitted via: ExactAudioCopyFreeDBPlugin 1.0
#
DISCID=7c0a0309
DTITLE=Xuan Hieu - Bien Nghin Thu O Lai
DYEAR=2010
DGENRE=Soundtrack
TTITLE0=Bien Khat
TTITLE1=Thuyen Va Bien
TTITLE2=Bien Nho
TTITLE3=Bien Can
TTITLE4=Ben Em La Bien Rong
TTITLE5=Tinh Em Dai Duong
TTITLE6=La Mer (Dai Duong)
TTITLE7=Bien Nghin Thu O Lai
TTITLE8=Song Ve Đau
EXTD=
EXTT0=
EXTT1=
EXTT2=
EXTT3=
EXTT4=
EXTT5=
EXTT6=
EXTT7=
EXTT8=
PLAYORDER=
